<svg version="1.1" xmlns="http://www.w3.org/2000/svg" xmlns:xlink="http://www.w3.org/1999/xlink" width="80.00004" height="186.00001" viewBox="0,0,80.00004,186.00001"><g transform="translate(-170.00007,-77.99999)"><g data-paper-data="{&quot;isPaintingLayer&quot;:true}" fill-rule="nonzero" stroke="none" stroke-width="1" stroke-linecap="butt" stroke-linejoin="miter" stroke-miterlimit="10" stroke-dasharray="" stroke-dashoffset="0" style="mix-blend-mode: normal"><g data-paper-data="{&quot;index&quot;:null}"><path d="M190.23218,163.924c2.344,3.606 16.787,8.051 20.274,10.49l-7.973,14.782c-3.098,-0.856 -5.932,-2.466 -8.245,-4.683c-2.456,-2.244 -6.613,-7.808 -6.836,-8.199c-0.968,-1.673 -2.015,-3.31 -2.578,-5.179c-0.133,-0.438 -0.24,-0.881 -0.357,-1.325c-0.117,-0.443 -0.239,-0.939 -0.34,-1.341c0.516,-0.686 4.545,-3.838 6.055,-4.545z" fill="#824600"/><path d="M184.22618,169.989c-0.582,-1.803 -4.099,-14.851 -4.099,-14.851c0,0 3.956,-6.142 3.956,-6.377c0.137,0.153 7.183,15.496 7.183,16.043c-1.222,0.885 -6.4,5.136 -7.04,5.185z" fill="#f01446"/><path d="M198.91218,171c0,0 4.832,2.203 5.518,2.612l-0.104,15.584l-5.972,-0.156z" fill="#f01446"/></g><g data-paper-data="{&quot;index&quot;:null}"><path d="M193.71418,229.689c1.568,-3.296 2.962,-6.675 4.175,-10.122c0.63,-1.943 9.643,-29.424 9.899,-30.371l9.807,43.492c-0.816,1.082 -14.442,13.673 -15.316,14.127l-11.013,-11.177c0.165,-0.347 2.069,-5.099 2.448,-5.949z" fill="#be0a3c"/><path d="M170.85318,258.946h-0.806c0,-0.38 0.032,-0.759 0,-1.138c-0.106,-3.387 0,-6.81 0,-10.202c3.084,-1.036 6.285,-0.956 9.427,-2.233c2.952,-1.196 8.23,-3.921 9.957,-6.645c0.392,0.337 5.739,5.411 8.876,7.906c0.345,0.486 0.652,0.902 1.06,1.356c-8.913,4.199 -18.663,7.767 -28.355,6.869c-0.461,1.127 -0.17,2.847 -0.159,4.087z" fill="#6e1e3c"/><path d="M203.41818,247.085c-1.185,1.078 -6.351,3.774 -6.351,3.774l-9.852,-10.643l3.549,-5.531c1.868,0.868 10.727,9.866 12.654,12.4z" fill="#f0e6d2"/><path d="M194.31618,251.385l-1.83,0.528l-8.296,-10.069l1.294,-1.051l8.832,10.592" fill="#f0e6d2"/></g><path d="M200.47018,193.239c-0.239,-1.109 -0.07,-8.844 1.326,-16.584c1.049,-5.796 3.419,-12.264 3.359,-12.302c2.989,-6.706 9.049,-9.453 16.212,-8.236c3.5,0.593 7.81,3.652 10.549,7.256c0.84,1.09 1.492,2.311 1.929,3.614l-0.109,14.419l3.881,3.635c0,0 0.456,6.852 0.087,8.198z" data-paper-data="{&quot;index&quot;:null}" fill="#be0a3c"/><g data-paper-data="{&quot;index&quot;:null}" fill="#ffc800"><path d="M176.74018,157.859c1.045,0.122 2.095,0.232 3.134,0.421c0.451,0.094 0.881,0.281 1.266,0.549c0.338,0.264 0.636,0.58 0.886,0.94c0.093,0.118 0.137,0.271 0.123,0.425c-0.013,0.154 -0.085,0.296 -0.197,0.392c-0.566,0.319 -1.225,0.391 -1.839,0.202c-0.447,-0.11 -0.9,-0.179 -1.357,-0.208c-0.875,-0.162 -1.675,-0.635 -2.271,-1.342c-0.316,-0.329 -0.462,-0.803 -0.392,-1.269c0.211,-0.066 0.428,-0.102 0.647,-0.11z"/><path d="M179.11418,154.805c1.235,-4.41 2.469,-8.824 3.701,-13.241c1.154,-4.163 17.217,-58.149 18.967,-62.473c2.71,-1.937 8.302,-1.696 9.717,4.045c0.807,1.518 -22.647,55.579 -23.845,58.476c-1.846,4.393 -3.676,8.797 -5.489,13.214z"/></g><path d="M182.81518,149.425c2.493,1.006 3.581,2.603 3.359,5.294c-0.258,3.157 -1.473,4.605 -4.753,4.025c-3.702,-0.652 -4.658,-1.843 -5.345,-5.365c0.718,-4.103 2.614,-5.618 6.739,-3.954z" data-paper-data="{&quot;index&quot;:null}" fill="#824600"/><g data-paper-data="{&quot;index&quot;:null}"><path d="M184.17718,150.463c0,0 2.588,-2.675 2.721,-2.713c0.974,1.243 14.152,15.293 24.082,18.946c2.662,0.971 13.79,1.443 13.79,1.443l0.926,14.87c-1.597,0.657 -12.459,-1.503 -15.696,-2.898c-7.502,-3.256 -14.679,-8.683 -19.167,-15.841c-1.848,-2.106 -6.656,-13.807 -6.656,-13.807z" fill="#824600"/><path d="M183.27118,139.663c1.33,0.089 2.787,-0.115 4.288,0.662c0.373,0.196 0.763,0.36 1.166,0.49c1.738,2.33 1.963,3.91 0.83,6.568c-0.809,2.173 -2.702,3.825 -5.053,4.41l-5.922,-2.304c-1.561,-3.847 0.875,-8.398 4.691,-9.826z" fill="#824600"/><path d="M217.03418,166.957c0,0 16.763,0.112 17.077,0.112c1.248,2.847 3.994,15.04 3.718,18.069c-0.117,0.032 -21.247,0 -21.247,0z" fill="#6e1e3c"/></g><g data-paper-data="{&quot;index&quot;:null}"><path d="M234.72418,163.618c-2.751,-4.94 -7.364,-22.437 -6.98,-22.944c0.32,-0.027 14.653,11.625 17.902,16.764c2.459,3.877 6.904,11.211 2.459,15.255c-5.199,1.952 -11.269,-5.258 -13.381,-9.075z" fill="#000000"/><path d="M205.89518,128.309l25.658,-3.809c1.73,5.386 4.014,12.189 0.054,19.983c-2.316,4.565 -6.539,7.756 -8.991,8.129c-6.642,1.001 -11.14,-2.008 -14.544,-6.67c-1.967,-2.701 -1.864,-5.109 -2.031,-8.284c-0.124,-2.589 -1.185,-6.856 -0.146,-9.349z" fill="#824600"/><path d="M222.21018,139.391c-0.85,0.501 -1.883,0.297 -2.542,-0.502c-0.457,-0.948 -0.813,-1.958 -1.06,-3.005c2.015,-0.289 4.051,-0.341 6.076,-0.156c-0.19,0.912 -1.872,3.294 -2.474,3.663z" fill="#642800"/><path d="M221.64618,143.005c-1.658,3.424 -8.102,0.988 -8.102,-1.034c0,-2.022 5.996,-1.422 7.868,0.046z" fill="#000000"/><path d="M212.88318,136.63l0.416,0.034c0.371,0.598 0.221,1.207 0.184,1.761c-0.233,0.236 -0.541,0.292 -0.813,0.149c-0.245,-0.642 -0.16,-1.42 0.213,-1.944z" fill="#000000"/><path d="M226.72018,138.509c0.026,-0.308 0.009,-0.705 0.337,-0.868c0.072,0.002 0.143,0.017 0.212,0.045c0.084,0.053 0.163,0.115 0.239,0.185c0.332,1.081 0.302,1.299 -0.268,1.792c-0.507,-0.185 -0.562,-0.638 -0.52,-1.154z" fill="#000000"/></g><g data-paper-data="{&quot;index&quot;:null}"><path d="M236.13718,130.565c0,0 8.992,4.571 2.23,6.398c-6.762,1.826 -24.91,-0.591 -31.911,-0.779l15.045,-5.522z" fill="#be0a3c"/><path d="M201.39818,134.856c0.185,-10.479 4.087,-14.691 9.967,-17.278c3.805,-1.689 13.485,-1.873 18.621,1.7c4.424,3.074 5.744,9.743 5.837,11.405c-4.56,0.541 -23.637,4.395 -28.153,5.792c-0.604,3.323 -1.81,11.275 -1.81,11.275c0,0 -4.647,-2.409 -4.462,-12.894z" fill="#f01446"/><path d="M222.78718,130.256c-0.399,-0.136 -0.763,-0.362 -1.068,-0.662c-1.246,-1.238 -1.444,-3.225 -0.469,-4.7c0.285,-0.489 0.645,-0.927 1.067,-1.296c0.737,-0.601 1.505,-1.23 2.514,-1.103c2.127,0.173 3.795,1.957 3.891,4.159c0.055,0.618 -0.076,1.238 -0.374,1.776c-0.8,1.512 -2.071,2.135 -3.944,2.135c-0.545,-0.067 -1.085,-0.17 -1.617,-0.309z" fill="#be0a3c"/><path d="M202.51618,138.163c-0.138,-1.18 -0.147,-2.372 -0.027,-3.554c1.605,0.162 2.854,1.473 2.944,3.089c0.044,0.47 -0.058,0.943 -0.291,1.353c-0.476,0.807 -1.252,1.39 -2.157,1.623c-0.202,-0.828 -0.359,-1.666 -0.469,-2.511z" fill="#6e1e3c"/></g><g data-paper-data="{&quot;index&quot;:null}"><path d="M200.50718,192.669l36.328,-0.441c-0.626,7.279 -7.479,38.787 -7.479,38.787l-23.152,0.637c0,0 -5.001,-33.207 -5.281,-35.232c-0.141,-1.013 -0.821,-2.765 -0.416,-3.751z" fill="#f01446"/><path d="M221.17818,215.14c0.005,3.442 -0.066,6.879 -0.171,10.321c-0.045,1.57 0.643,7.216 -0.573,8.213l-1.936,-0.139c-0.764,-6.391 -0.437,-13.076 -0.502,-19.51c-0.061,-6.058 -0.946,-12.797 0.125,-18.764h3.368c0.483,6.476 -0.306,13.344 -0.311,19.879z" fill="#ffc800"/><path d="M227.72218,235.534l-9.112,27.352l3.129,0.281l0.071,0.833l-8.765,-0.206c0,0 -4.207,-19.746 -5.577,-30.12z" fill="#6e1e3c"/><path d="M231.77218,228.62c-0.58,2.143 -1.985,7.286 -2.692,8.838l-21.562,0.259c-0.26,-0.894 -1.729,-6.805 -2.075,-8.76z" fill="#f0e6d2"/><path d="M228.73418,239.739c-0.188,1.07 -0.537,2.096 -1.032,3.033h-19.704c-0.239,-0.957 -0.416,-1.933 -0.53,-2.919z" fill="#f0e6d2"/></g><g data-paper-data="{&quot;index&quot;:null}"><path d="M238.86118,192.228v4.044h-39.494v-4.044h39.494" fill="#6e1e3c"/><path d="M213.54418,192.228v5.055h-3.038v-5.055h3.038" fill="#f01446"/><path d="M234.81018,192.228v5.055h-10.126v-5.055h10.126" fill="#f01446"/></g></g></g></svg>