<svg version="1.1" xmlns="http://www.w3.org/2000/svg" xmlns:xlink="http://www.w3.org/1999/xlink" width="106.14196" height="150.92417" viewBox="0,0,106.14196,150.92417"><g transform="translate(-224.27625,-113.69117)"><g data-paper-data="{&quot;isPaintingLayer&quot;:true}" fill-rule="nonzero" stroke="none" stroke-linecap="butt" stroke-linejoin="miter" stroke-miterlimit="10" stroke-dasharray="" stroke-dashoffset="0" style="mix-blend-mode: normal"><g data-paper-data="{&quot;index&quot;:null}" stroke-width="1"><path d="M304.69746,157.209c0.721,-4.383 4.457,-5.488 8.153,-3.932c3.491,1.464 5.24,4.12 4.28,6.839c-2.799,1.607 -4.78,5.403 -6.546,8.025l-6.205,-3.745c-1.221,-1.983 -0.051,-4.941 0.318,-7.187z" fill="#824600"/><path d="M303.55646,163.205c0.624,0.291 8.096,3.722 8.294,4.126c-1.992,0.034 -8.913,1.984 -10.889,1.847c0.057,-0.69 2.078,-5.574 2.595,-5.973z" fill="#be0a3c"/><path d="M285.25246,170.563c0,0 -3.566,-11.142 -4.701,-12.328c1.834,0.325 22.653,10.202 24.413,11.57c-1.17,0.279 -19.712,0.758 -19.712,0.758z" fill="#6e1e3c"/></g><g data-paper-data="{&quot;index&quot;:null}" stroke-width="1"><path d="M305.39546,197.504c-0.153,0.535 -11.434,41.252 -11.434,41.252l-11.446,-0.753c0,0 -6.211,-39.656 -6.211,-43.634z" fill="#be0a3c"/><path d="M282.26546,238.756l12.11,0.496c-0.829,2.918 -6.279,19.218 -7.114,24.507c1.278,0.034 3.617,0.125 3.617,0.125l0.034,0.684c0,0 -6.523,0.171 -7.948,-0.137c-0.568,-1.641 -0.903,-19.474 -0.699,-25.675z" fill="#6e1e3c"/><path d="M281.50546,240.574c-0.154,-1.653 -0.205,-4.326 -0.37,-6.064h15.063c-0.199,1.071 -1.204,4.286 -1.772,6.121z" fill="#f0e6d2"/><path d="M281.55646,243.481c-0.046,-0.445 0,-0.969 -0.051,-1.374l12.7,0.091c-0.102,0.376 -0.227,0.815 -0.363,1.283z" fill="#f0e6d2"/></g><g data-paper-data="{&quot;index&quot;:null}" stroke-width="1"><path d="M284.11046,187.912l4.105,-0.781c1.386,-1.02 4.258,-1.106 5.899,-1.476c2.023,-0.497 3.989,-1.206 5.865,-2.115c4.792,-2.177 11.661,-6.554 17.151,-5.899l-3.048,12.414c-1.136,4.525 -1.567,10.316 -3.566,14.533c-1.777,3.739 -7.67,6.566 -17.6,6.269c-9.93,-0.296 -15.897,-9.267 -15.897,-9.267c0,0 5.735,-12.538 7.091,-13.678z" fill="#f01446"/><path d="M292.52446,194.352c2.595,0.063 6.16,-2.303 8.352,-3.214c2.668,-1.118 8.516,-6.116 11.514,-4.777c-0.21,0.929 0.533,0.411 0,1.499c-0.392,0.798 -2.436,1.374 -3.185,1.79c-2.884,1.59 -5.661,3.374 -8.562,4.93c-1.959,1.049 -5.462,2.747 -9.436,1.829c-2.566,-0.598 -6.415,-3.83 -6.415,-3.83c0.907,-0.426 1.779,-0.925 2.606,-1.493c1.249,1.385 3.474,3.226 5.126,3.266z" fill="#ffc800"/><path d="M313.58246,183.489c0.925,-1.67 1.925,-4.691 3.548,-5.859c11.355,2.531 11.117,17.942 6.507,27.984c-1.193,2.605 -6.569,8.201 -6.569,8.201l-12.138,-9.21c0,0 8.311,-20.5 8.652,-21.116z" fill="#f01446"/><path d="M315.36546,202.93c0.775,-1.399 1.214,-2.961 1.283,-4.56c0.028,-0.747 0.477,-3.203 -0.386,-5.477c-0.863,-2.274 -3.032,-4.36 -3.6,-4.491c-1.13,-0.257 -4.07,1.208 -4.07,1.208c0,0 0.068,-2.718 2.066,-3.374c2.175,-1.026 6.461,0.051 7.949,4.246c0.853,1.91 1.214,4.006 1.05,6.093c-0.011,0.37 -0.063,0.752 -0.097,1.14c-0.243,2.04 -0.888,4.012 -1.896,5.802c-0.636,1.236 -1.493,2.37 -2.271,3.55c-0.335,0.536 -2.146,2.713 -2.793,2.85c-0.415,-0.262 -1.414,-0.73 -1.613,-1.243c0.046,-0.108 3.668,-4.382 4.378,-5.744z" fill="#ffc800"/><path d="M302.23946,207.768c0,0 10.452,8.293 12.45,9.689c0.437,0.439 -17.833,13.531 -17.742,15.189c0.891,1.237 3.452,3.237 3.713,4.622l-0.636,0.496c-1.135,-1.391 -6.143,-7.039 -6.932,-8.139c0.029,-0.171 9.147,-21.857 9.147,-21.857z" fill="#6e1e3c"/><path d="M304.99246,201.203c0,0 14.994,12.88 15.028,12.954c-0.749,1.744 -5.297,4.645 -5.297,4.645l-13.132,-11.273z" fill="#f0e6d2"/><path d="M300.95046,208.999l12.365,10.92l-1.709,1.043l-11.548,-10.618l0.892,-1.345" fill="#f0e6d2"/></g><path d="M273.70446,155.579c2.713,0.759 5.369,1.712 7.948,2.85c0.767,0.319 14.614,15.616 18.168,20.187c0.161,0.156 0.311,0.324 0.448,0.502c0.301,0.387 0.676,0.718 1.005,1.088c0.36,0.479 0.686,0.982 0.977,1.505l-25.429,19.48c0,0 -3.872,-7.021 -4.713,-9.199c-0.567,-1.453 -1.135,-2.895 -1.703,-4.342l-1.277,-3.158c-0.29,-0.718 -0.568,-1.436 -0.869,-2.166c-0.448,-1.185 -0.886,-2.382 -1.317,-3.579c-0.051,-0.131 -0.619,-1.75 -0.977,-2.85h-0.028v-0.091c-0.142,-0.427 -0.25,-0.763 -0.273,-0.855c0.097,0.063 -0.437,-13.319 -0.647,-18.528c-0.051,-1.26 -0.085,-2.046 -0.085,-2.046c0,0 7.852,0.963 8.772,1.202z" data-paper-data="{&quot;index&quot;:null}" fill="#be0a3c" stroke-width="1"/><g data-paper-data="{&quot;index&quot;:null}" fill="#ffc800" stroke-width="1"><path d="M225.37746,117.354c0.74,-1.039 1.604,-1.982 2.572,-2.81c0.593,-0.509 1.338,-0.806 2.118,-0.844c1.386,-0.068 2.764,0.258 3.974,0.941c1.516,0.837 3.049,1.624 4.576,2.433c0.471,0.245 0.96,0.462 1.402,0.741c2.504,1.596 5.19,2.85 7.79,4.28c1.703,0.947 81.187,46.462 81.817,47.185l-1.368,1.18c-0.437,-0.148 -92.797,-40.254 -93.74,-40.722c-3.022,-1.46 -5.878,-3.244 -8.516,-5.323c-0.383,-0.308 -0.721,-0.669 -1.005,-1.071c-1.084,-1.488 -0.937,-4.241 0.38,-5.99z"/><path d="M325.98746,166.003c0,-0.279 3.287,-2.49 4.292,1.402c0.185,0.579 0.185,1.2 0,1.779c-0.488,1.282 -2.009,4.189 -4.496,3.351c-2.487,-0.838 -1.703,-2.85 -1.919,-3.089z"/></g><path d="M304.14646,157.591c0.368,-0.505 0.762,-0.99 1.181,-1.453c0.452,-0.616 1.174,-0.973 1.936,-0.958c2.021,-0.051 4.883,0.906 4.82,2.28c-0.102,2.075 -4.133,1.63 -4.133,1.63c0,0 -0.437,1.408 -0.539,1.773c1.447,2.467 3.446,7.021 3.338,8.127c-1.573,-0.046 -7.12,-4.041 -7.426,-4.753c0.278,-1.22 0.329,-5.432 0.823,-6.646z" data-paper-data="{&quot;index&quot;:null}" fill="#642800" stroke-width="1"/><g data-paper-data="{&quot;index&quot;:null}" stroke-width="1"><path d="M315.31446,159.364c2.572,-1.032 5.444,-1.442 10.554,2.319c1.142,1.037 1.78,2.519 1.749,4.064c0.038,1.839 -0.839,3.577 -2.339,4.633c-1.186,0.825 -2.475,1.49 -3.833,1.978c-0.261,0.103 -9.72,-0.325 -10.106,-0.256c-0.306,-0.314 -1.237,-1.71 -1.01,-2.924c0.159,-0.422 4.11,-9.626 4.985,-9.814z" fill="#824600"/><path d="M276.86046,167.747c1.136,-0.125 29.813,-0.815 30.704,-0.769l2.271,6.594c-0.227,0.103 -19.61,5.329 -28.677,7.466c-1.497,0.39 -3.041,0.565 -4.587,0.519z" fill="#824600"/><path d="M277.71846,182.68c0,0 -8.443,-3.369 -11.775,-6.731c-1.244,-4.423 -7.006,-17.486 -2.271,-21.236c2.901,-2.297 17.549,9.598 18.644,12.299c-0.369,2.571 -4.598,15.668 -4.598,15.668z" fill="#f01446"/><path d="M312.86746,166.015c0,0 3.645,6.497 3.974,6.976c-2.998,0.98 -6.819,1.903 -9.811,2.542c-0.142,-0.223 -3.003,-8.464 -2.838,-9.342c2.407,-0.558 8.675,-0.176 8.675,-0.176z" fill="#f01446"/></g><g data-paper-data="{&quot;index&quot;:null}" stroke-width="1"><path d="M265.26746,131.659l29.977,2.359c-0.034,0.542 -6.041,12.978 -6.291,13.314c-0.726,0.992 -1.186,2.177 -2.134,3.004c-0.455,0.393 -0.903,0.792 -1.357,1.18c-0.822,0.774 -1.768,1.405 -2.799,1.863c-0.75,0.297 -1.533,0.525 -2.311,0.747c-1.418,0.431 -2.921,0.498 -4.372,0.194c-0.34,-0.074 -0.687,-0.143 -1.027,-0.234c-1.204,-0.302 -2.291,-0.956 -3.123,-1.881c-1.881,-2.072 -3.31,-4.516 -4.195,-7.175c-2.328,-7.341 -2.544,-12.972 -2.368,-13.371z" fill="#824600"/><path d="M286.44446,140.556c-0.273,0.615 -2.021,4.565 -2.544,4.776c-1.112,0 -2.134,-0.12 -2.782,-1.14c-0.051,-0.695 0.824,-5.272 1.357,-5.962c1.289,0.61 2.947,1.357 3.969,2.326z" fill="#642800"/><path d="M248.89346,148.951c-3.582,1.966 -12.865,6.406 -14.568,0.997c-3.423,-10.886 28.393,-15.075 31.442,-14.419c0.142,0.422 -11.537,10.487 -16.874,13.422z" fill="#000000"/><path d="M278.70046,142.949l-2.918,-0.951c-0.199,-0.359 -0.239,-0.616 0.056,-0.833c0.279,0.023 1.499,0.468 2.033,0.513c-0.522,-0.37 -1.363,-1.863 -1.658,-2.08c0.148,-0.342 0.222,-0.524 0.295,-0.701c1.062,1.037 2.052,2.146 2.964,3.317c0,0.587 -0.352,0.707 -0.772,0.735z" fill="#000000"/><path d="M279.60846,148.546l-4.888,-3.625c0.028,-0.205 0.057,-0.399 0.085,-0.627l0.602,-0.074c1.209,1.212 2.6,2.226 4.122,3.004c0.233,0.108 0.397,0.365 0.698,0.65z" fill="#000000"/></g><g data-paper-data="{&quot;index&quot;:null}" stroke-width="1"><path d="M295.90846,136.737c1.42,2.32 6.245,4.788 2.742,7.7c-1.402,1.14 -4.593,1.562 -7.437,1.225c-2.016,-0.233 -8.8,-3.385 -10.725,-4.73c-2.032,-1.417 -3.865,-3.102 -5.45,-5.01z" fill="#be0a3c"/><path d="M262.11646,130.827c1.101,-5.7 3.662,-9.119 8.584,-12.282c3.793,-2.445 8.238,-4.36 12.797,-4.149c4.979,0.228 9.981,3.368 13.058,7.221c3.844,4.81 3.095,11.245 0.841,16.796c-3.151,0.353 -15.329,-0.838 -21.518,-1.414c-1.703,2.166 -3.162,3.802 -6.381,4.269c-8.386,1.214 -7.75,-8.68 -7.381,-10.441z" fill="#f01446"/><path d="M294.98346,128.61c1.402,2.855 -1.635,4.742 -3.577,6.013c-1.244,0.255 -2.536,-0.08 -3.503,-0.907c-0.768,-1.672 -0.926,-3.562 -0.449,-5.34l0.977,-1.106c1.851,-1.139 5.479,-0.872 6.552,1.34z" fill="#be0a3c"/><path d="M271.43346,134.292c1.09,3.699 -3.725,4.52 -5.91,3.129c-1.039,-1.106 -0.625,-2.297 -0.472,-3.385l1.011,-1.334c1.885,-1.02 3.866,-0.439 5.371,1.59z" fill="#6e1e3c"/></g><g data-paper-data="{&quot;index&quot;:null}"><path d="M300.84246,179.015l2.634,2.741l-26.746,20.621l-2.158,-2.833l26.27,-20.529" fill="#6e1e3c" stroke-width="1"/><path d="M283.16256,192.2254l3.2799,3.9873l-6.8008,5.5942l-3.2799,-3.9873l6.8008,-5.5942" fill="#f01446" stroke-width="1"/><path d="M291.57086,185.4928l3.2799,3.9873l-2.0829,1.7134l-3.2799,-3.9874l2.0829,-1.7133" fill="#f01446" stroke-width="1"/><path d="M299.29076,179.263l3.2805,3.9881l-2.0828,1.7134l-3.2806,-3.9881l2.0829,-1.7134" fill="#f01446" stroke-width="1"/></g></g></g></svg>