<svg version="1.1" xmlns="http://www.w3.org/2000/svg" xmlns:xlink="http://www.w3.org/1999/xlink" width="148.00001" height="150.00022" viewBox="0,0,148.00001,150.00022"><g transform="translate(-145.99988,-114.74978)"><g data-paper-data="{&quot;isPaintingLayer&quot;:true}" fill-rule="nonzero" stroke="none" stroke-linecap="butt" stroke-linejoin="miter" stroke-miterlimit="10" stroke-dasharray="" stroke-dashoffset="0" style="mix-blend-mode: normal"><g data-paper-data="{&quot;index&quot;:null}" stroke-width="1"><path d="M190.21678,162.386c0.826,-0.117 38.906,8.236 38.906,8.236v3.925l-41.561,-1.713c0.11,-0.9 2.247,-9.527 2.655,-10.448z" fill="#824600"/><path d="M195.67078,161.207l-1.701,15.367l-15.532,-19.256c2.269,0.282 17.233,3.889 17.233,3.889z" fill="#6e1e3c"/></g><g data-paper-data="{&quot;index&quot;:null}" stroke-width="1"><path d="M176.11678,200.159l13.27,-9.395l17.836,4.163c1.361,1.158 0.061,7.488 -0.161,8.881c-0.625,3.964 -1.476,7.888 -2.55,11.752c-1.894,6.811 -6.987,15.317 -9.704,21.825l-16.914,-1.332c-0.078,-4.773 -0.244,-8.612 -0.511,-13.369c-0.161,-2.91 -1.111,-7.353 -1.516,-10.241c-0.334,-2.479 -1.483,-5.244 -1.483,-7.683z" fill="#be0a3c"/><path d="M173.14378,263.546c0,0 2.551,0 4.27,0.138v1.066c-3.473,-0.094 -9.113,-0.215 -9.113,-0.215l8.938,-28.163l16.405,0.502c0,0 -4.741,7.814 -7.529,12.088c-5.001,7.621 -12.971,14.584 -12.971,14.584z" fill="#6e1e3c"/><path d="M196.68478,233.37c-0.656,2.226 -2.565,6.389 -3.97,8.069h-17.314c-0.06,-1.909 0.64,-6.792 1.094,-9.121z" fill="#f0e6d2"/><path d="M174.94178,243.466l16.674,0.33c-0.11,0.574 -0.242,1.14 -0.395,1.697h-16.837c0.236,-0.649 0.423,-1.328 0.558,-2.027z" fill="#f0e6d2"/></g><path d="M165.15478,166.108c-0.028,-1.848 2.355,-6.454 2.073,-6.796c2.261,-2.168 7.01,-2.079 9.896,-1.925c4.113,0.221 6.882,2.598 9.508,5.599c3.006,3.506 5.776,7.206 8.293,11.076c1.343,2.019 2.676,4.066 4.063,6.068c1.106,1.611 3.599,5.571 3.583,5.571c1.277,2.703 3.538,5.572 4.251,8.479c-11.018,3.034 -21.942,7.049 -32.756,10.773c-2.382,-5.632 -4.046,-11.452 -6.158,-17.183c-2.112,-5.731 -5.335,-12.136 -5.689,-18.297c0.011,-0.011 2.936,-3.365 2.936,-3.365z" data-paper-data="{&quot;index&quot;:null}" fill="#be0a3c" stroke-width="1"/><path d="M217.97578,172.363c7.399,-2.293 31.649,-2.67 39.332,-3.138c4.467,-0.274 20.066,-0.491 24.511,-0.65c1.833,-0.075 3.628,-0.046 5.472,0c1.444,0.039 4.228,-0.4 5.45,0.251c0.844,2.048 2.128,6.419 0.411,8.388c-8.294,0.467 -27.65,0.502 -35.938,0.074c-4.089,-0.217 -35.611,-0.656 -38.733,-2.5c0.05,-0.884 -0.555,-1.54 -0.505,-2.425z" data-paper-data="{&quot;index&quot;:null}" fill="#ffc800" stroke-width="1"/><g data-paper-data="{&quot;index&quot;:null}" stroke-width="1"><path d="M199.70878,169.48c0,0 12.698,6.765 13.195,8.042c-1.704,0.06 -20.429,4.687 -24.144,5.006c-5.268,0.476 -10.573,-0.389 -15.39,-2.511l0.324,-10.218z" fill="#824600"/><path d="M198.71178,180.628l0.086,-11.148l10.43,0.199l1.649,8.305l-12.165,2.644" fill="#f01446"/><path d="M218.45278,176.525c-1.946,2.429 -6.561,4.07 -9.494,2.429c-3.173,-1.789 -3.327,-7.018 -3.064,-10.299c3.492,-0.323 8.222,-0.361 11.511,0.957c2.023,1.914 1.782,4.507 1.047,6.913z" fill="#824600"/></g><path d="M231.13078,173.593c-0.217,2.585 -2.128,4.733 -5.813,4.938c-2.585,0.144 -7.825,0.538 -8.337,-4.6c-0.511,-5.138 7.881,-7.491 11.86,-6.07c1.117,0.399 2.49,3.285 2.29,5.732z" data-paper-data="{&quot;index&quot;:null}" fill="#824600" stroke-width="1"/><path d="M204.71078,171.897c3.213,-2.344 4.662,6.679 0.833,5.601c-1.449,-0.97 -1.855,-1.892 -1.747,-3.833z" data-paper-data="{&quot;index&quot;:null}" fill="#ffc800" stroke-width="1"/><g data-paper-data="{&quot;index&quot;:null}" stroke-width="1"><path d="M165.64378,137.03c-1.199,-0.447 -2.409,-0.871 -3.586,-1.361c-0.994,-0.41 -1.961,-0.869 -2.903,-1.377c-1.381,-0.72 -2.684,-1.573 -3.889,-2.547c-0.56,-0.463 -1.121,-0.925 -1.681,-1.355c-2.125,-1.485 -3.938,-3.351 -5.34,-5.497c-0.963,-1.379 -1.614,-2.941 -1.911,-4.583c-0.026,-0.167 -0.069,-0.331 -0.129,-0.489c-0.448,-1.318 -0.101,-2.542 0.46,-3.734c0.208,-0.547 0.686,-0.956 1.272,-1.089c1.266,-0.223 2.549,-0.424 3.816,0c2.066,0.648 3.941,1.768 5.469,3.266c0.964,0.974 1.939,1.943 2.886,2.928c0.982,0.954 1.797,2.057 2.415,3.266c0.448,0.947 0.919,1.894 1.451,2.802c0.925,1.584 1.328,3.331 1.827,5.051c0.179,0.615 0.207,1.268 0.376,1.889c0.189,0.942 0.101,1.917 -0.253,2.813c-0.14,0.022 -0.218,0.055 -0.28,0.017z" fill="#000000"/><path d="M168.72778,137.559l11.489,-8.62l12.413,20.21c-0.781,1.464 -4.315,3.409 -5.739,4.191c-3.323,1.829 -7.577,2.661 -11.183,1.214c-4.194,-1.663 -6.62,-6.414 -7.168,-10.599c-0.272,-2.078 -0.427,-4.368 0.188,-6.396z" fill="#824600"/><path d="M180.57678,149.209c-0.841,-0.079 -1.694,-0.153 -2.137,-1.137c-0.091,-0.597 4.388,-13.753 5.19,-14.065c0.727,0.608 4.837,7.567 4.945,7.703c-0.221,0.489 -7.589,7.545 -7.998,7.499z" fill="#642800"/><path d="M175.58878,149.385c0.695,0.275 1.364,0.615 2.054,0.905c0.841,0.374 1.489,1.048 1.8,1.874c0.012,0.084 0.012,0.17 0,0.254l-0.324,0.575c-1.051,0.5 -2.049,0.22 -2.989,-0.14c-1.304,-0.438 -2.322,-1.417 -2.76,-2.653l0.616,-0.91c0.982,-0.12 0.992,-0.12 1.603,0.095z" fill="#000000"/></g><g data-paper-data="{&quot;index&quot;:null}" stroke-width="1"><path d="M201.69078,144.867c0,0.179 0.928,5.362 -4.366,6.922c-0.629,0.209 -1.278,0.353 -1.936,0.43c-1.778,0.111 -3.563,-0.078 -5.278,-0.559c-0.326,-0.084 -2.172,-0.604 -2.751,-0.839c-1.924,-0.823 -3.723,-1.909 -5.346,-3.226c-1.44,-1.112 -2.612,-2.529 -3.432,-4.148c-0.613,-1.202 -1.17,-2.438 -1.688,-3.685c-0.242,-0.559 -2.566,-7.1 -2.509,-7.782z" fill="#be0a3c"/><path d="M164.35678,134.827c1.236,-6.92 2.877,-11.47 8.937,-15.449c5.283,-3.465 11.443,-4.705 17.53,-2.541c5.977,2.12 9.98,5.867 12.441,11.701c1.314,3.117 1.913,6.001 1.27,9.333c-0.377,1.971 -2.867,7.284 -2.867,7.284l-25.602,-8.214c0,0 -3.221,4.428 -6.182,4.816c-3.992,0.553 -6.165,-3.36 -5.527,-6.93z" fill="#f01446"/><path d="M194.99578,133.171c2.56,0.608 4.636,2.679 3.297,5.702c-0.973,2.206 -3.651,2.623 -5.75,1.908c-2.932,-0.991 -3.472,-3.625 -2.532,-5.786c0.945,-2.168 3.449,-2.19 4.985,-1.824z" fill="#be0a3c"/><path d="M170.07778,132.138c0.873,-0.326 1.851,-0.14 2.551,0.485c0.342,0.568 0.574,1.197 0.686,1.853c0.159,0.742 -0.031,1.517 -0.513,2.093c-0.269,0.324 -0.571,0.617 -0.902,0.873c-0.93,0.764 -1.922,0.741 -3.036,0.359c-0.958,-0.314 -1.237,-1.152 -1.47,-2.024c-0.047,-0.188 -0.082,-0.379 -0.106,-0.571c0.763,-1.984 1.242,-2.498 2.79,-3.068z" fill="#6e1e3c"/></g><g data-paper-data="{&quot;index&quot;:null}" stroke-width="1"><path d="M207.04578,193.804c0.039,-0.089 13.026,31.351 17.009,39.825c-1.035,2.28 -6.969,7.73 -9.078,9.837c-3.087,-2.463 -12.019,-10.465 -14.956,-13.156l-9.872,-9.053c-5.593,-5.121 -11.141,-10.287 -16.779,-15.358c0.184,-0.456 33.508,-11.678 33.676,-12.095z" fill="#f01446"/><path d="M207.22978,219.012c2.134,2.92 4.179,5.88 6.195,8.867c0.913,1.368 5.002,5.707 4.506,7.344l-1.847,1.149c-4.624,-4.95 -8.426,-10.841 -12.431,-16.256c-3.768,-5.09 -12.385,-13.688 -15.078,-19.451c1.037,-0.74 2.366,-1.042 3.414,-1.793c4.415,5.185 11.242,14.607 15.241,20.14z" fill="#ffc800"/><path d="M222.94678,231.304c0,0 13.294,27.091 16.122,31.39c0.667,0 4.072,-0.521 4.246,0.387c-0.561,0.65 -2.883,0.426 -4.269,0.533c-2.037,0.163 -4.083,0.163 -6.12,0c-2.653,-3.364 -21.036,-20.494 -21.036,-20.494z" fill="#6e1e3c"/><path d="M207.83578,241.094c5.14,-5.587 14.429,-15.77 14.657,-15.871c0.722,0.873 4.342,8.961 4.603,9.974c-0.147,0.214 -7.698,7.159 -12.822,12.323c-2.199,-1.971 -5.239,-4.629 -6.438,-6.426z" fill="#f0e6d2"/><path d="M228.30278,236.372l0.82,1.994l-11.798,11.181c-0.57,-0.628 -1.044,-1.013 -1.38,-1.481c5.398,-5.465 12.358,-11.694 12.358,-11.694z" fill="#f0e6d2"/></g><g data-paper-data="{&quot;index&quot;:null}"><path d="M207.41168,191.4782l1.4747,4.8477l-35.8834,10.9159l-1.4747,-4.8477l35.8834,-10.9159" fill="#6e1e3c" stroke-width="1"/><path d="M184.31178,197.8596l2.1392,6.7638l-7.7316,2.4452l-2.1391,-6.7638l7.7315,-2.4452" fill="#f01446" stroke-width="1"/><path d="M204.78498,191.4709l2.1394,6.7648l-2.8994,0.917l-2.1395,-6.7648l2.8995,-0.917" fill="#f01446" stroke-width="1"/><path d="M197.64818,194.5577l2.1391,6.7638l-2.8995,0.917l-2.1391,-6.7638l2.8995,-0.917" fill="#f01446" stroke-width="1"/></g><path d="M176.32278,184.682c0,0 -8.11,-4.451 -10.361,-6.726c-2.25,-2.275 -2.856,-5.104 -3.732,-8.037c-0.14,-3.958 0.999,-12.159 7.583,-11.556c3.098,0.252 5.651,2.587 7.857,4.638c2.032,1.891 5.837,6.107 5.837,6.107z" data-paper-data="{&quot;index&quot;:null}" fill="#f01446" stroke-width="1"/></g></g></svg>